<svg xmlns="http://www.w3.org/2000/svg" viewBox="0 0 24 24" width="32" height="32">
  <rect width="24" height="24" rx="5" fill="#0d1117" />
  <g transform="translate(1, 0.5)">
    <path d="M15 20.5v-3.33a4 4 0 0 0-.83-2.92c2.5 0 5-1.67 5-4.58.07-1.04-.22-2.07-.83-2.92.23-.96.23-1.96 0-2.92 0 0-.83 0-2.5 1.25-2.2-.42-4.47-.42-6.67 0C7.5 3.83 6.67 3.83 6.67 3.83c-.25.96-.25 1.96 0 2.92A4.5 4.5 0 0 0 5 9.17c0 2.92 2.5 4.58 5 4.58-.33.41-.57.88-.71 1.38-.14.5-.18 1.03-.12 1.54v3.33" fill="none" stroke="#e6edf3" stroke-width="1.5" stroke-linecap="round" stroke-linejoin="round" />
    <path d="M7.5 17.17c-3.76 1.67-4.17-1.67-5.83-1.67" fill="none" stroke="#e6edf3" stroke-width="1.5" stroke-linecap="round" stroke-linejoin="round" />
  </g>
</svg>
